<svg width="14" height="14" viewBox="0 0 14 14" fill="none" xmlns="http://www.w3.org/2000/svg">
<path fill-rule="evenodd" clip-rule="evenodd" d="M7.56035 0.0161656C7.43756 -0.0165324 7.30681 0.000791103 7.19678 0.0643383C7.08674 0.127885 7.00639 0.232471 6.97335 0.355166L4.64035 9.06317C4.60768 9.18609 4.62514 9.31695 4.68889 9.42701C4.75264 9.53708 4.85747 9.61733 4.98035 9.65017L11.0633 11.2802C11.1863 11.3128 11.3171 11.2954 11.4272 11.2316C11.5373 11.1679 11.6175 11.063 11.6503 10.9402L13.9853 2.23317C14.0017 2.17223 14.0058 2.10868 13.9976 2.04614C13.9893 1.9836 13.9688 1.9233 13.9372 1.86869C13.9057 1.81408 13.8636 1.76623 13.8135 1.72788C13.7635 1.68952 13.7063 1.66142 13.6453 1.64517L7.56035 0.0161656ZM3.43335 8.73917L5.02935 2.78417L0.356347 4.03517C0.295394 4.05142 0.238242 4.07952 0.188159 4.11788C0.138075 4.15623 0.0960436 4.20408 0.0644664 4.25869C0.0328893 4.3133 0.0123861 4.3736 0.00412941 4.43614C-0.00412732 4.49868 2.43075e-05 4.56223 0.0163469 4.62317L2.35135 13.3302C2.38418 13.453 2.46444 13.5579 2.5745 13.6216C2.68456 13.6854 2.81542 13.7028 2.93835 13.6702L9.02235 12.0402L9.04535 12.0332L4.65535 10.8572C4.21239 10.7383 3.83474 10.4485 3.60541 10.0513C3.37608 9.65417 3.31383 9.1822 3.43235 8.73917"  fill="currentColor" stroke="currentColor" stroke-width="current"/>
</svg>
